<?xml version="1.0" standalone="no"?><!DOCTYPE svg PUBLIC "-//W3C//DTD SVG 1.1//EN" "http://www.w3.org/Graphics/SVG/1.1/DTD/svg11.dtd"><svg t="1644982714909" class="icon" viewBox="0 0 1024 1024" version="1.1" xmlns="http://www.w3.org/2000/svg" p-id="7565" xmlns:xlink="http://www.w3.org/1999/xlink" width="200" height="200"><defs><style type="text/css">@font-face { font-family: element-icons; src: url("chrome-extension://moombeodfomdpjnpocobemoiaemednkg/fonts/element-icons.woff") format("woff"), url("chrome-extension://moombeodfomdpjnpocobemoiaemednkg/fonts/element-icons.ttf ") format("truetype"); }
</style></defs><path d="M864 64a32 32 0 0 1 32 32v811.392a32 32 0 0 1-46.72 28.416l-322.56-167.04a32 32 0 0 0-29.44 0l-322.56 167.04a32 32 0 0 1-46.72-28.416V96a32 32 0 0 1 32-32h704z m-64 96h-576v642.176l229.12-118.592a128 128 0 0 1 107.52-4.736l10.24 4.736 229.12 118.592V160z" p-id="7566"></path><path d="M704 320v96H320V320z" p-id="7567"></path></svg>